<svg xmlns="http://www.w3.org/2000/svg" xmlns:xlink="http://www.w3.org/1999/xlink"><symbol id="caret_down" viewBox="0 0 10 6">
<path d="M5 5.5L10 0.5L0 0.5L5 5.5Z" fill="white"/>
</symbol><symbol id="eye" viewBox="0 0 18 16">
<path fill-rule="evenodd" clip-rule="evenodd" d="M11.7343 8.00016C11.7343 9.43484 10.5096 10.5975 8.99957 10.5975C7.48951 10.5975 6.26573 9.43484 6.26573 8.00016C6.26573 6.56467 7.48951 5.40197 8.99957 5.40197C10.5096 5.40197 11.7343 6.56467 11.7343 8.00016Z" stroke="#C8C8C8" stroke-width="1.5" stroke-linecap="round" stroke-linejoin="round"/>
<path fill-rule="evenodd" clip-rule="evenodd" d="M8.99827 14C12.2917 14 15.304 11.7502 17 8C15.304 4.24979 12.2917 2 8.99827 2H9.00173C5.70832 2 2.696 4.24979 1 8C2.696 11.7502 5.70832 14 9.00173 14H8.99827Z" stroke="#C8C8C8" stroke-width="1.5" stroke-linecap="round" stroke-linejoin="round"/>
</symbol><symbol id="home" viewBox="0 0 24 24">
<path d="M11.9904 0L0 9.48434H3.03603V24H20.964V9.48434H24L11.9904 0ZM9.95356 20.6651H6.245V16.7904H9.95356V20.6651ZM9.95356 15.2289H6.245V11.3735H9.95356V15.2289ZM11.9904 6.55422C11.2602 6.55422 10.6645 5.93735 10.6645 5.16627C10.6645 4.39518 11.2602 3.77831 11.9904 3.77831C12.7206 3.77831 13.3163 4.39518 13.3163 5.16627C13.3163 5.93735 12.7206 6.55422 11.9904 6.55422ZM17.7358 20.6651H14.0272V16.7904H17.7358V20.6651ZM17.7358 15.2289H14.0272V11.3735H17.7358V15.2289Z" fill="white"/>
</symbol><symbol id="settings" viewBox="0 0 24 25">
<path fill-rule="evenodd" clip-rule="evenodd" d="M23.2976 9.94239L21.1746 9.12774C20.5654 8.88705 20.2885 8.20202 20.5469 7.60955L21.47 5.53588C21.6546 5.11004 21.5623 4.61016 21.2485 4.27689L19.7716 2.79571C19.4393 2.46245 18.9409 2.36986 18.5163 2.55501L16.4486 3.48075C15.8579 3.73995 15.1748 3.46224 14.9348 2.85125L14.1226 0.722073C13.9564 0.27772 13.5318 0 13.0703 0H10.9658C10.5042 0 10.0796 0.296234 9.91349 0.722073L9.10121 2.85125C8.87968 3.46224 8.17817 3.73995 7.58742 3.48075L5.5198 2.55501C5.0952 2.36986 4.59676 2.46245 4.26446 2.79571L2.78759 4.27689C2.4553 4.61016 2.36299 5.11004 2.5476 5.53588L3.47064 7.60955C3.7291 8.20202 3.45218 8.88705 2.84297 9.12774L0.719974 9.94239C0.276913 10.109 0 10.5348 0 10.9977V13.0899C0 13.5528 0.295374 13.9786 0.719974 14.1452L2.84297 14.9599C3.45218 15.1821 3.7291 15.8856 3.47064 16.4781L2.5476 18.5517C2.36299 18.9776 2.4553 19.4775 2.78759 19.8107L4.26446 21.2919C4.59676 21.6252 5.0952 21.7177 5.5198 21.5326L7.58742 20.6069C8.17817 20.3477 8.87968 20.6254 9.10121 21.2364L9.91349 23.3656C10.0796 23.8099 10.5042 24.0876 10.9658 24.0876H13.0518C13.5134 24.0876 13.938 23.7914 14.1041 23.3656L14.9164 21.2364C15.1564 20.6254 15.8394 20.3477 16.4302 20.6069L18.4978 21.5326C18.9224 21.7177 19.4208 21.6252 19.7531 21.2919L21.23 19.8107C21.5623 19.4775 21.6546 18.9776 21.4515 18.5517L20.5285 16.4781C20.27 15.8856 20.5469 15.2006 21.1562 14.9599L23.2792 14.1452C23.7222 13.9786 23.9991 13.5528 23.9991 13.0899V10.9977C24.0176 10.5348 23.7407 10.109 23.2976 9.94239ZM13.0703 17.3112C9.30428 18.0333 6.07363 14.7747 6.77514 10.9977C7.16282 8.90555 8.87968 7.18371 10.9658 6.7949C14.7318 6.07282 17.9624 9.33142 17.2609 13.1084C16.8732 15.2006 15.1564 16.9039 13.0703 17.3112Z" fill="white"/>
</symbol><symbol id="sort" viewBox="0 0 16 26">
<path d="M7.99996 17.9048L11.3333 14.0952H4.66663L7.99996 17.9048Z" fill="#979797"/>
<path d="M8.00004 7.23808L4.66671 11.0476L11.3334 11.0476L8.00004 7.23808Z" fill="#979797"/>
</symbol></svg>