<svg width="41" height="43" viewBox="0 0 41 43" fill="none" xmlns="http://www.w3.org/2000/svg">
<path d="M40.9999 21.4626C40.9999 10.1504 31.8248 0.97525 20.5125 0.97525C9.2003 0.97525 0.0251465 10.1504 0.0251465 21.4626C0.0251465 32.7749 9.2003 41.95 20.5125 41.95C31.8248 41.9785 40.9999 32.8034 40.9999 21.4626Z" fill="white"/>
<path d="M11.9073 30.0395C12.4771 29.726 13.0755 29.4696 13.7024 29.2701L16.8083 28.3298L17.0647 28.2443L17.1502 28.2158L17.2357 28.1873L20.1706 27.304L23.1055 27.9309V28.1873L23.248 28.2443H23.2765L23.7039 28.3868L26.6103 29.2701C27.2657 29.4696 27.921 29.7545 28.4909 30.0965C31.2549 31.6636 33.05 34.6555 33.05 37.9324V41.6366C33.05 42.0356 32.7081 42.3775 32.3092 42.3775H8.00355C7.60463 42.3775 7.2627 42.0356 7.2627 41.6366V37.9324C7.2627 34.5986 9.08633 31.5782 11.9073 30.0395Z" fill="#10123E"/>
<path d="M12.99 20.1234C13.0755 19.3826 13.7878 19.4965 13.9873 19.5535C13.9873 19.3256 13.9873 19.0976 13.9873 18.8697C13.9873 14.9375 16.7512 11.7746 20.1705 11.7746C23.5899 11.7746 26.3538 14.966 26.3538 18.8697C26.3538 19.0976 26.3538 19.3256 26.3253 19.582C26.4678 19.525 27.2656 19.3541 27.3511 20.1519C27.4651 21.0067 26.0974 22.7449 25.5275 22.4315C24.9576 23.5712 24.1313 24.5115 23.1055 25.1384V28.2443C21.3673 29.5265 18.9738 29.5265 17.2356 28.2443V25.1099C16.2383 24.483 15.3835 23.5427 14.8136 22.403C14.2437 22.6879 12.9045 20.9782 12.99 20.1234Z" fill="#ECECEC"/>
<path d="M18.5179 13.8831C18.5179 13.8831 20.7405 17.5874 23.5899 18.4992C23.5899 18.4992 24.8437 17.5304 26.0119 18.5277C26.7243 19.1261 25.9834 21.3771 25.9834 21.3771C25.9834 21.3771 29.1748 16.3336 27.4081 13.8831C25.1571 10.7203 22.5926 9.69446 20.3131 9.72296C17.3782 9.77995 14.9276 11.6036 14.2153 12.9143C12.9045 15.2508 13.9873 20.0664 13.9873 20.0664C13.9873 20.0664 14.4147 17.9008 14.8422 16.932C15.2696 15.9632 18.5179 13.8831 18.5179 13.8831Z" fill="#10123E"/>
</svg>
